# xmcd
#
# Track frame offsets:
#	150
#	20682
#	40043
#	54188
#	73554
#	90080
#	109286
#	125482
#	147167
#	165810
#	183485
#	197553
#	216162
#	237495
#	254825
#	273967
#
# Disc length: 3860 seconds
#
# Revision: 1
# Processed by: cddbd v1.5.2PL0 Copyright (c) Steve Scherf et al.
# Submitted via: EasyCDDAExtractor 5.0.5.1
#
DISCID=dd0f1210
DTITLE=שלומי שבת - זמן אהבה
DYEAR=2003
DGENRE=Other
TTITLE0=אל נא תבכי
TTITLE1=את
TTITLE2=את יפה
TTITLE3=בשם האהבה
TTITLE4=אני אוהב אותך
TTITLE5=מן החושך חזרתי
TTITLE6=האם את כאן
TTITLE7=הרי את מקודשת לי
TTITLE8=קחי אותי
TTITLE9=בן
TTITLE10=לו רק יכולתי
TTITLE11=כשאת רוצה
TTITLE12=התאהבתי
TTITLE13=להרוס אהבה
TTITLE14=תנו לגדול בשקט
TTITLE15=בחוף של טראפטוני
EXTD=
EXTT0=
EXTT1=
EXTT2=
EXTT3=
EXTT4=
EXTT5=
EXTT6=
EXTT7=
EXTT8=
EXTT9=
EXTT10=
EXTT11=
EXTT12=
EXTT13=
EXTT14=
EXTT15=
PLAYORDER=
